<svg
	width="260"
	height="61"
	viewBox="0 0 260 61"
	fill="none"
	xmlns="http://www.w3.org/2000/svg"
>
	<g clip-path="url(#clip0_7_48)">
		<path
			d="M113.69 59.27L117.46 50.52H117.82L121.59 59.27H121.12L119.83 56.25H115.44L114.15 59.27H113.69ZM117.65 51.06L115.57 55.88H119.7L117.65 51.06Z"
			fill="white"></path>
		<path
			d="M125.93 59.27V50.52H128.78C129.47 50.52 130.07 50.64 130.59 50.87C131.11 51.1 131.54 51.41 131.88 51.81C132.22 52.21 132.48 52.67 132.65 53.2C132.82 53.73 132.91 54.3 132.91 54.89C132.91 55.56 132.81 56.16 132.62 56.7C132.43 57.24 132.15 57.7 131.79 58.08C131.43 58.46 131 58.76 130.49 58.97C129.98 59.18 129.41 59.28 128.78 59.28H125.93V59.27ZM132.49 54.88C132.49 54.31 132.41 53.77 132.24 53.29C132.08 52.81 131.84 52.39 131.53 52.03C131.22 51.68 130.83 51.4 130.36 51.2C129.89 51 129.37 50.9 128.78 50.9H126.35V58.86H128.78C129.39 58.86 129.92 58.76 130.39 58.56C130.85 58.36 131.24 58.08 131.56 57.72C131.87 57.36 132.11 56.94 132.26 56.45C132.42 55.96 132.49 55.43 132.49 54.87V54.88Z"
			fill="white"></path>
		<path d="M134.78 59.27V50.53H135.2V59.27H134.78Z" fill="white"></path>
		<path
			d="M137.62 59.27V50.52H143.28V50.91H138.04V54.61H142.5V54.99H138.04V59.27H137.62Z"
			fill="white"></path>
		<path
			d="M144.92 59.27V50.52H150.58V50.91H145.34V54.61H149.8V54.99H145.34V59.27H144.92Z"
			fill="white"></path>
		<path
			d="M158.01 58.87V59.26H152.23V50.51H157.9V50.9H152.65V54.58H157.25V54.97H152.65V58.85H158.01V58.87Z"
			fill="white"></path>
		<path
			d="M159.84 59.27V50.52H163.44C163.8 50.52 164.14 50.6 164.44 50.75C164.75 50.91 165.01 51.11 165.24 51.36C165.46 51.61 165.63 51.9 165.76 52.22C165.89 52.54 165.94 52.87 165.94 53.19C165.94 53.51 165.89 53.85 165.79 54.15C165.69 54.45 165.54 54.73 165.35 54.96C165.16 55.2 164.93 55.4 164.67 55.55C164.41 55.71 164.12 55.8 163.79 55.83L166 59.26H165.51L163.33 55.88H160.27V59.26H159.85L159.84 59.27ZM160.26 55.49H163.51C163.81 55.49 164.09 55.42 164.34 55.29C164.59 55.16 164.8 54.99 164.97 54.77C165.14 54.55 165.28 54.31 165.37 54.03C165.46 53.75 165.51 53.47 165.51 53.18C165.51 52.89 165.45 52.6 165.34 52.32C165.23 52.04 165.08 51.8 164.89 51.59C164.7 51.38 164.48 51.21 164.23 51.09C163.98 50.96 163.71 50.9 163.42 50.9H160.25V55.48L160.26 55.49Z"
			fill="white"></path>
		<path
			d="M173.65 58.87V59.26H167.87V50.51H173.54V50.9H168.29V54.58H172.89V54.97H168.29V58.85H173.65V58.87Z"
			fill="white"></path>
		<path
			d="M175.9 51.33V59.27H175.48V50.52H175.8L182.23 58.59V50.53H182.65V59.27H182.23L175.89 51.33H175.9Z"
			fill="white"></path>
		<path
			d="M191.12 50.91H187.84V59.27H187.41V50.91H184.13V50.52H191.12V50.91Z"
			fill="white"></path>
		<path
			d="M194.21 59.27L197.98 50.52H198.34L202.11 59.27H201.64L200.35 56.25H195.96L194.67 59.27H194.21ZM198.17 51.06L196.09 55.88H200.22L198.17 51.06Z"
			fill="white"></path>
		<path
			d="M203.56 59.27V50.52H207.13C207.49 50.52 207.83 50.6 208.13 50.75C208.44 50.91 208.7 51.11 208.93 51.36C209.15 51.61 209.32 51.9 209.45 52.22C209.58 52.54 209.63 52.87 209.63 53.19C209.63 53.54 209.57 53.87 209.46 54.19C209.35 54.51 209.18 54.8 208.97 55.05C208.76 55.3 208.5 55.5 208.21 55.65C207.92 55.8 207.59 55.88 207.22 55.88H203.98V59.26H203.56V59.27ZM203.98 55.49H207.21C207.52 55.49 207.8 55.42 208.05 55.29C208.3 55.16 208.51 54.98 208.68 54.77C208.85 54.56 208.99 54.31 209.08 54.03C209.17 53.75 209.22 53.47 209.22 53.19C209.22 52.91 209.16 52.61 209.05 52.33C208.94 52.05 208.79 51.81 208.6 51.6C208.41 51.39 208.19 51.22 207.93 51.1C207.67 50.97 207.4 50.91 207.12 50.91H203.98V55.49Z"
			fill="white"></path>
		<path
			d="M211.23 59.27V50.52H214.8C215.16 50.52 215.5 50.6 215.8 50.75C216.11 50.91 216.37 51.11 216.6 51.36C216.82 51.61 216.99 51.9 217.12 52.22C217.25 52.54 217.3 52.87 217.3 53.19C217.3 53.54 217.24 53.87 217.13 54.19C217.02 54.51 216.85 54.8 216.64 55.05C216.43 55.3 216.17 55.5 215.88 55.65C215.59 55.8 215.26 55.88 214.89 55.88H211.65V59.26H211.23V59.27ZM211.65 55.49H214.88C215.19 55.49 215.47 55.42 215.72 55.29C215.97 55.16 216.18 54.98 216.35 54.77C216.52 54.56 216.66 54.31 216.75 54.03C216.84 53.75 216.89 53.47 216.89 53.19C216.89 52.91 216.83 52.61 216.72 52.33C216.61 52.05 216.46 51.81 216.27 51.6C216.08 51.39 215.86 51.22 215.6 51.1C215.34 50.97 215.07 50.91 214.79 50.91H211.65V55.49Z"
			fill="white"></path>
		<path
			d="M218.9 59.27V50.52H222.5C222.86 50.52 223.2 50.6 223.5 50.75C223.81 50.91 224.07 51.11 224.3 51.36C224.52 51.61 224.69 51.9 224.82 52.22C224.95 52.54 225 52.87 225 53.19C225 53.51 224.95 53.85 224.85 54.15C224.75 54.45 224.6 54.73 224.41 54.96C224.22 55.2 223.99 55.4 223.73 55.55C223.47 55.71 223.18 55.8 222.85 55.83L225.06 59.26H224.57L222.39 55.88H219.33V59.26H218.91L218.9 59.27ZM219.32 55.49H222.57C222.87 55.49 223.15 55.42 223.4 55.29C223.65 55.16 223.86 54.99 224.03 54.77C224.2 54.55 224.34 54.31 224.43 54.03C224.52 53.75 224.57 53.47 224.57 53.18C224.57 52.89 224.51 52.6 224.4 52.32C224.29 52.04 224.14 51.8 223.95 51.59C223.76 51.38 223.54 51.21 223.29 51.09C223.04 50.96 222.77 50.9 222.48 50.9H219.31V55.48L219.32 55.49Z"
			fill="white"></path>
		<path
			d="M230.42 59.33C229.81 59.33 229.26 59.2 228.76 58.95C228.26 58.7 227.83 58.36 227.47 57.95C227.11 57.54 226.83 57.07 226.63 56.53C226.43 56 226.33 55.45 226.33 54.89C226.33 54.33 226.43 53.75 226.64 53.21C226.85 52.68 227.14 52.2 227.5 51.79C227.86 51.38 228.3 51.05 228.79 50.81C229.29 50.57 229.83 50.45 230.41 50.45C230.99 50.45 231.56 50.58 232.06 50.84C232.56 51.1 232.99 51.44 233.35 51.86C233.71 52.28 233.98 52.75 234.18 53.28C234.38 53.81 234.48 54.35 234.48 54.89C234.48 55.48 234.37 56.05 234.17 56.58C233.96 57.11 233.67 57.58 233.31 57.99C232.94 58.4 232.51 58.72 232.02 58.96C231.52 59.2 230.99 59.32 230.41 59.32L230.42 59.33ZM226.76 54.89C226.76 55.42 226.85 55.92 227.03 56.41C227.21 56.89 227.46 57.32 227.79 57.7C228.11 58.07 228.5 58.37 228.95 58.59C229.4 58.81 229.89 58.92 230.42 58.92C230.95 58.92 231.47 58.8 231.92 58.57C232.37 58.34 232.75 58.03 233.07 57.65C233.39 57.27 233.64 56.84 233.82 56.36C234 55.88 234.09 55.39 234.09 54.89C234.09 54.36 234 53.86 233.81 53.37C233.63 52.89 233.37 52.46 233.04 52.08C232.71 51.71 232.33 51.41 231.88 51.19C231.44 50.97 230.95 50.86 230.43 50.86C229.91 50.86 229.38 50.98 228.93 51.21C228.48 51.44 228.1 51.75 227.78 52.13C227.46 52.51 227.21 52.94 227.03 53.42C226.85 53.9 226.76 54.39 226.76 54.89Z"
			fill="white"></path>
		<path
			d="M235.07 59.27L238.84 50.52H239.2L242.97 59.27H242.5L241.21 56.25H236.82L235.53 59.27H235.07ZM239.02 51.06L236.94 55.88H241.07L239.02 51.06Z"
			fill="white"></path>
		<path
			d="M243.83 54.83C243.83 54.3 243.92 53.78 244.11 53.26C244.3 52.74 244.56 52.28 244.91 51.86C245.26 51.44 245.69 51.11 246.2 50.85C246.71 50.59 247.3 50.46 247.96 50.46C248.74 50.46 249.4 50.64 249.95 51C250.5 51.36 250.9 51.82 251.16 52.37L250.79 52.54C250.63 52.23 250.44 51.96 250.22 51.75C250 51.54 249.77 51.36 249.51 51.23C249.26 51.1 248.99 51 248.72 50.95C248.45 50.9 248.18 50.86 247.91 50.86C247.33 50.86 246.81 50.98 246.35 51.21C245.89 51.44 245.51 51.75 245.2 52.13C244.89 52.51 244.65 52.94 244.49 53.41C244.33 53.89 244.25 54.37 244.25 54.85C244.25 55.38 244.34 55.9 244.53 56.39C244.72 56.88 244.98 57.32 245.31 57.69C245.64 58.06 246.03 58.36 246.49 58.58C246.94 58.8 247.43 58.91 247.94 58.91C248.22 58.91 248.5 58.88 248.8 58.81C249.1 58.74 249.37 58.63 249.64 58.49C249.91 58.35 250.16 58.16 250.39 57.94C250.62 57.72 250.82 57.45 250.98 57.14L251.35 57.29C251.2 57.62 251 57.91 250.75 58.17C250.49 58.42 250.21 58.64 249.9 58.81C249.59 58.98 249.26 59.11 248.91 59.2C248.56 59.29 248.22 59.33 247.89 59.33C247.3 59.33 246.75 59.2 246.25 58.94C245.75 58.68 245.32 58.33 244.96 57.91C244.6 57.49 244.32 57.01 244.12 56.47C243.92 55.93 243.82 55.38 243.82 54.82L243.83 54.83Z"
			fill="white"></path>
		<path
			d="M259.69 50.52V59.27H259.26V54.99H253.44V59.27H253.02V50.52H253.44V54.6H259.26V50.52H259.69Z"
			fill="white"></path>
		<path
			d="M26.61 4.5C34.87 8.25 43.13 12.01 51.4 15.74C52.23 16.12 52.59 16.67 52.59 17.57C52.58 26.75 52.58 35.92 52.59 45.1C52.59 46.02 52.23 46.59 51.38 46.98C43.31 50.69 35.25 54.41 27.19 58.15C26.56 58.44 26.01 58.44 25.39 58.15C17.33 54.41 9.27 50.69 1.2 46.98C0.350001 46.59 0 46.01 0 45.1C0.01 35.92 0 26.75 0 17.57C0 16.59 0.319998 16 1.06 15.86C1.46 15.79 1.94 15.86 2.31 16.03C10.14 19.45 17.97 22.9 25.8 26.32C26.05 26.43 26.43 26.47 26.67 26.36C33.48 23.39 40.28 20.4 47.08 17.41C47.21 17.35 47.33 17.29 47.51 17.2C47.32 17.1 47.18 17.02 47.04 16.95C40.28 13.88 33.51 10.81 26.75 7.74001C26.41 7.59001 26.16 7.59001 25.82 7.74001C20.59 10.13 15.36 12.5 10.13 14.87C9.91 14.97 9.68 15.08 9.45 15.13C8.73 15.29 8.04 14.91 7.79 14.25C7.53 13.56 7.79 12.83 8.47 12.46C8.75 12.31 9.04 12.19 9.33 12.06C14.69 9.63 20.05 7.19 25.41 4.76C25.6 4.67 25.79 4.59 25.98 4.5C26.19 4.5 26.4 4.5 26.61 4.5ZM2.94 19.47C2.93 19.65 2.92 19.76 2.92 19.88C2.92 27.97 2.92 36.06 2.91 44.15C2.91 44.53 3.08 44.66 3.37 44.79C10.36 48.01 17.34 51.23 24.32 54.46C24.47 54.53 24.63 54.59 24.84 54.68V53.97C24.84 47.88 24.84 41.79 24.84 35.7C24.84 34.51 25.36 33.83 26.28 33.81C27.21 33.79 27.76 34.49 27.76 35.71C27.76 41.82 27.76 47.92 27.76 54.03V54.67C27.97 54.59 28.09 54.55 28.2 54.5C35.23 51.25 42.26 48 49.3 44.77C49.64 44.61 49.7 44.42 49.7 44.09C49.7 36.05 49.7 28.02 49.7 19.98C49.7 19.83 49.69 19.68 49.68 19.48C49.45 19.58 49.26 19.65 49.07 19.73C41.8 22.92 34.54 26.11 27.28 29.31C26.62 29.6 26.03 29.6 25.37 29.31C18.11 26.1 10.84 22.92 3.58 19.72C3.39 19.64 3.2 19.56 2.98 19.46L2.94 19.47Z"
			fill="#1C2260"></path>
		<path
			d="M66.39 60.7601C66.34 59.2701 66.21 57.7801 66.27 56.3001C66.33 54.7601 67.07 54.1701 68.64 54.2901C70.52 54.4501 72.4 54.7101 74.28 54.8801C75.28 54.9701 76.29 54.9801 77.29 54.9901C77.75 54.9901 77.78 54.7501 77.59 54.3301C77.24 53.5801 76.58 53.4701 75.9 53.3401C74.45 53.0801 73.01 52.8101 71.56 52.5701C71.14 52.5001 71.07 52.3501 71.22 51.9501C71.6 50.9001 72.49 50.5501 73.43 50.2501C73.83 50.1201 74.21 49.9701 74.67 49.8101C74.32 49.3301 73.89 49.1701 73.44 49.3401C72.64 49.6401 71.85 49.9701 71.1 50.3801C70.59 50.6601 70.37 51.1701 70.45 51.7501C70.48 51.9601 70.54 52.1701 70.64 52.3801C70.79 52.7001 70.96 53.0101 71.16 53.4201C70.84 53.4501 70.62 53.4801 70.4 53.4901C68.85 53.5501 67.31 53.5901 65.76 53.6701C65.34 53.6901 65.12 53.5601 64.99 53.1701C64.82 52.6501 64.62 52.1401 64.44 51.6301C64.41 51.5301 64.37 51.4301 64.34 51.3401C63.59 49.0101 61.83 47.8801 59.58 47.3601C59.06 47.2401 58.51 47.2801 57.96 47.2501C57.98 48.0201 58.25 48.4501 58.91 48.5401C60.38 48.7501 61.49 49.6501 62.69 50.3801C62.83 50.4701 62.89 50.7001 62.98 50.8701C62.82 50.9401 62.66 51.0501 62.49 51.0601C60.85 51.1401 59.21 51.2501 57.56 51.2401C56.87 51.2401 56.84 51.6401 56.77 52.0801C56.69 52.5701 56.95 52.9901 57.43 53.0701C57.82 53.1301 58.23 53.1201 58.63 53.1201C59.89 53.1201 61.15 53.0401 62.41 53.1301C63.8 53.2301 64.69 54.1101 64.92 55.4801C65.17 56.9901 65.35 58.5101 65.56 60.0201C65.59 60.2701 65.66 60.5101 65.71 60.7501H66.4L66.39 60.7601Z"
			fill="white"></path>
		<path
			d="M98.57 19.98C98.32 20.13 98.06 20.27 97.82 20.44C96.26 21.48 94.75 22.58 92.97 23.24C91.67 23.72 90.35 23.95 88.97 23.76C88.74 23.73 88.37 23.82 88.27 23.98C88.07 24.32 88.39 24.49 88.66 24.69C90 25.66 91.41 25.42 92.8 24.93C94.97 24.17 96.76 22.87 98.15 21.03C98.36 20.75 98.52 20.42 98.7 20.12L98.57 19.99V19.98Z"
			fill="white"></path>
		<path
			d="M85.83 26.95C86.56 27.9 87.57 28.56 88.82 28.71C89.81 28.83 90.84 28.81 91.83 28.71C92.24 28.67 92.62 28.26 92.99 27.99C93.04 27.96 93.02 27.71 92.97 27.67C92.59 27.41 92.19 26.99 91.79 26.97C89.82 26.9 87.84 26.94 85.84 26.94L85.83 26.95Z"
			fill="white"></path>
		<path
			d="M27.12 18.92C27.12 18.92 30.56 -0.509955 45.29 1.46005C45.29 1.46005 66.17 5.67006 67.39 52.0401"
			stroke="white"
			stroke-width="2.5"
			stroke-miterlimit="10"></path>
		<path
			d="M67.39 52.03C67.39 52.03 69.53 15.66 79.68 15.25"
			stroke="white"
			stroke-width="2.5"
			stroke-miterlimit="10"></path>
		<path
			d="M88.87 21.59C92.6697 21.59 95.75 18.5097 95.75 14.71C95.75 10.9103 92.6697 7.83002 88.87 7.83002C85.0703 7.83002 81.99 10.9103 81.99 14.71C81.99 18.5097 85.0703 21.59 88.87 21.59Z"
			fill="#1C2260"></path>
		<path
			d="M128.2 36.56C128.2 37.26 128.07 37.91 127.8 38.53C127.53 39.14 127.17 39.68 126.71 40.14C126.25 40.6 125.71 40.96 125.1 41.23C124.48 41.5 123.83 41.63 123.13 41.63H114.04V22.08H122.9C123.58 22.08 124.19 22.23 124.75 22.52C125.3 22.81 125.77 23.19 126.15 23.66C126.54 24.13 126.83 24.66 127.04 25.26C127.25 25.86 127.36 26.46 127.36 27.06C127.36 28.05 127.11 28.96 126.6 29.79C126.09 30.62 125.41 31.22 124.55 31.61C125.1 31.78 125.6 32.02 126.05 32.34C126.5 32.66 126.89 33.04 127.21 33.48C127.53 33.92 127.77 34.4 127.94 34.93C128.11 35.45 128.19 36 128.19 36.57L128.2 36.56ZM114.99 22.96V31.33H122.56C123.13 31.33 123.65 31.21 124.12 30.97C124.59 30.73 125 30.41 125.35 30.02C125.7 29.63 125.97 29.18 126.16 28.68C126.35 28.18 126.45 27.67 126.45 27.14C126.45 26.61 126.36 26.06 126.17 25.56C125.99 25.06 125.73 24.61 125.4 24.23C125.07 23.84 124.68 23.54 124.23 23.31C123.78 23.08 123.28 22.97 122.73 22.97H114.99V22.96ZM127.24 36.48C127.24 35.93 127.14 35.39 126.95 34.87C126.76 34.35 126.49 33.89 126.14 33.49C125.79 33.09 125.38 32.78 124.9 32.54C124.42 32.3 123.9 32.18 123.33 32.18H114.99V40.74H123.14C123.71 40.74 124.25 40.62 124.75 40.38C125.26 40.14 125.69 39.82 126.06 39.42C126.43 39.02 126.72 38.56 126.93 38.04C127.14 37.52 127.25 37 127.25 36.47L127.24 36.48Z"
			fill="white"></path>
		<path
			d="M140.1 41.76C138.74 41.76 137.51 41.47 136.4 40.91C135.29 40.34 134.33 39.6 133.52 38.68C132.71 37.76 132.09 36.71 131.65 35.51C131.21 34.32 130.99 33.1 130.99 31.85C130.99 30.6 131.22 29.3 131.69 28.11C132.16 26.92 132.8 25.86 133.62 24.94C134.44 24.02 135.4 23.29 136.51 22.75C137.62 22.21 138.83 21.94 140.13 21.94C141.43 21.94 142.7 22.23 143.82 22.81C144.94 23.39 145.9 24.15 146.7 25.08C147.5 26.02 148.12 27.08 148.56 28.26C149 29.44 149.22 30.64 149.22 31.85C149.22 33.17 148.99 34.43 148.52 35.62C148.05 36.81 147.41 37.86 146.59 38.77C145.77 39.68 144.81 40.4 143.7 40.94C142.59 41.48 141.39 41.75 140.11 41.75L140.1 41.76ZM131.92 31.85C131.92 33.02 132.12 34.15 132.53 35.24C132.93 36.32 133.5 37.28 134.22 38.12C134.94 38.96 135.81 39.62 136.81 40.12C137.81 40.62 138.91 40.86 140.1 40.86C141.29 40.86 142.44 40.6 143.44 40.08C144.44 39.56 145.3 38.87 146.02 38.03C146.74 37.19 147.29 36.22 147.69 35.14C148.09 34.06 148.28 32.97 148.28 31.86C148.28 30.69 148.07 29.56 147.66 28.47C147.25 27.38 146.67 26.43 145.94 25.59C145.2 24.75 144.34 24.09 143.35 23.59C142.36 23.09 141.28 22.85 140.1 22.85C138.92 22.85 137.76 23.11 136.76 23.63C135.76 24.15 134.9 24.84 134.19 25.68C133.47 26.53 132.92 27.48 132.52 28.56C132.13 29.63 131.93 30.73 131.93 31.85H131.92Z"
			fill="white"></path>
		<path
			d="M151.22 22.08L158.43 31.28L165.67 22.08H166.77L158.98 31.99L166.55 41.63H165.45L158.43 32.71L151.44 41.63H150.31L157.88 31.99L150.09 22.08H151.22Z"
			fill="white"></path>
		<path
			d="M194.75 41.63V23.95L186.52 37.83H185.89L177.66 23.95V41.63H176.72V22.08H177.6L186.22 36.64L194.81 22.08H195.69V41.63H194.75Z"
			fill="white"></path>
		<path
			d="M213.99 40.75V41.63H201.08V22.08H213.74V22.96H202.01V31.19H212.28V32.07H202.01V40.74H213.99V40.75Z"
			fill="white"></path>
		<path
			d="M218.07 41.63V22.08H224.43C225.97 22.08 227.32 22.34 228.48 22.85C229.64 23.36 230.6 24.06 231.36 24.94C232.12 25.82 232.7 26.85 233.08 28.04C233.47 29.22 233.66 30.49 233.66 31.83C233.66 33.32 233.44 34.66 233.01 35.86C232.58 37.06 231.96 38.09 231.17 38.94C230.37 39.79 229.4 40.45 228.27 40.92C227.13 41.39 225.86 41.62 224.44 41.62H218.08L218.07 41.63ZM232.71 31.83C232.71 30.55 232.53 29.36 232.16 28.28C231.79 27.2 231.26 26.26 230.56 25.47C229.86 24.68 228.99 24.07 227.96 23.63C226.93 23.19 225.74 22.97 224.42 22.97H219V40.76H224.42C225.78 40.76 226.98 40.54 228.01 40.08C229.05 39.63 229.91 39.01 230.61 38.21C231.31 37.41 231.83 36.47 232.18 35.37C232.53 34.28 232.7 33.1 232.7 31.83H232.71Z"
			fill="white"></path>
		<path d="M237.83 41.63V22.11H238.77V41.63H237.83Z" fill="white"></path>
		<path
			d="M242.04 41.63L250.47 22.08H251.27L259.7 41.63H258.65L255.76 34.89H245.96L243.07 41.63H242.05H242.04ZM250.88 23.29L246.23 34.05H255.45L250.88 23.29Z"
			fill="white"></path>
		<path
			d="M122.35 18.02C121.12 18.02 120 17.76 118.99 17.24C117.98 16.72 117.11 16.05 116.38 15.22C115.65 14.39 115.08 13.43 114.68 12.34C114.28 11.25 114.08 10.15 114.08 9.01C114.08 7.87 114.29 6.69 114.72 5.61C115.15 4.53 115.73 3.57 116.47 2.73C117.21 1.9 118.09 1.23001 119.09 0.740005C120.1 0.250005 121.19 0 122.38 0C123.57 0 124.71 0.260001 125.73 0.790001C126.75 1.32 127.62 2 128.34 2.85C129.07 3.7 129.63 4.66001 130.03 5.74001C130.43 6.82001 130.63 7.9 130.63 9C130.63 10.2 130.42 11.34 129.99 12.42C129.57 13.5 128.98 14.46 128.24 15.28C127.5 16.11 126.62 16.76 125.62 17.26C124.61 17.75 123.52 18 122.36 18L122.35 18.02ZM114.92 9.02C114.92 10.09 115.1 11.11 115.47 12.1C115.84 13.09 116.35 13.95 117.01 14.71C117.67 15.47 118.45 16.07 119.36 16.52C120.27 16.97 121.26 17.19 122.35 17.19C123.44 17.19 124.48 16.95 125.39 16.48C126.3 16 127.08 15.38 127.73 14.62C128.38 13.85 128.88 12.98 129.24 12C129.6 11.02 129.78 10.03 129.78 9.03C129.78 7.96 129.59 6.94 129.22 5.95C128.85 4.96 128.32 4.1 127.66 3.34C126.99 2.58 126.21 1.98 125.31 1.53C124.41 1.08 123.43 0.860001 122.36 0.860001C121.29 0.860001 120.23 1.1 119.32 1.57C118.41 2.05 117.63 2.67 116.98 3.43C116.33 4.2 115.83 5.07 115.47 6.04C115.11 7.01 114.93 8.01 114.93 9.03L114.92 9.02Z"
			fill="white"></path>
		<path
			d="M141.37 17.19C142.64 17.19 143.69 16.95 144.53 16.48C145.37 16 146.03 15.38 146.52 14.62C147 13.85 147.35 12.98 147.55 12.01C147.75 11.04 147.85 10.05 147.85 9.05002V0.150017H148.73V9.05002C148.73 10.23 148.61 11.37 148.35 12.45C148.1 13.53 147.69 14.49 147.11 15.31C146.53 16.14 145.78 16.79 144.85 17.29C143.92 17.78 142.77 18.03 141.4 18.03C140.03 18.03 138.83 17.77 137.89 17.25C136.95 16.73 136.19 16.05 135.63 15.21C135.07 14.37 134.66 13.41 134.43 12.33C134.2 11.25 134.08 10.16 134.08 9.04002V0.140015H134.93V9.04002C134.93 10.07 135.03 11.08 135.23 12.05C135.43 13.03 135.78 13.89 136.28 14.65C136.78 15.41 137.44 16.02 138.27 16.49C139.1 16.96 140.13 17.19 141.38 17.19H141.37Z"
			fill="white"></path>
		<path
			d="M165.59 0.940018H158.94V17.89H158.06V0.940018H151.41V0.140015H165.58V0.940018H165.59Z"
			fill="white"></path>
		<path
			d="M181.67 18.02C180.44 18.02 179.32 17.76 178.31 17.24C177.3 16.72 176.43 16.05 175.7 15.22C174.97 14.39 174.4 13.43 174 12.34C173.6 11.25 173.4 10.15 173.4 9.01C173.4 7.87 173.61 6.69 174.04 5.61C174.47 4.53 175.05 3.57 175.79 2.73C176.53 1.9 177.41 1.23001 178.41 0.740005C179.42 0.250005 180.51 0 181.7 0C182.89 0 184.03 0.260001 185.05 0.790001C186.07 1.32 186.94 2 187.66 2.85C188.39 3.7 188.95 4.66001 189.35 5.74001C189.75 6.82001 189.95 7.9 189.95 9C189.95 10.2 189.74 11.34 189.31 12.42C188.89 13.5 188.3 14.46 187.56 15.28C186.82 16.11 185.94 16.76 184.94 17.26C183.93 17.75 182.84 18 181.68 18L181.67 18.02ZM174.24 9.02C174.24 10.09 174.42 11.11 174.79 12.1C175.16 13.09 175.67 13.95 176.33 14.71C176.99 15.47 177.77 16.07 178.68 16.52C179.59 16.97 180.58 17.19 181.67 17.19C182.76 17.19 183.8 16.95 184.71 16.48C185.62 16 186.4 15.38 187.05 14.62C187.7 13.85 188.2 12.98 188.56 12C188.92 11.02 189.1 10.03 189.1 9.03C189.1 7.96 188.91 6.94 188.54 5.95C188.17 4.96 187.64 4.1 186.98 3.34C186.31 2.58 185.53 1.98 184.63 1.53C183.73 1.08 182.75 0.860001 181.68 0.860001C180.61 0.860001 179.55 1.1 178.64 1.57C177.73 2.05 176.95 2.67 176.3 3.43C175.65 4.2 175.15 5.07 174.79 6.04C174.43 7.01 174.25 8.01 174.25 9.03L174.24 9.02Z"
			fill="white"></path>
		<path
			d="M193.67 17.89V0.140015H205.14V0.940018H194.52V8.44002H203.57V9.22002H194.52V17.89H193.67Z"
			fill="white"></path>
		<path
			d="M226.22 0.940018H219.57V17.89H218.69V0.940018H212.04V0.140015H226.21V0.940018H226.22Z"
			fill="white"></path>
		<path
			d="M242.74 0.140015V17.89H241.86V9.22002H230.06V17.89H229.21V0.140015H230.06V8.42001H241.86V0.140015H242.74Z"
			fill="white"></path>
		<path
			d="M259.34 17.09V17.89H247.62V0.140015H259.12V0.940018H248.47V8.42001H257.8V9.22002H248.47V17.1H259.35L259.34 17.09Z"
			fill="white"></path>
	</g>
	<defs>
		<clipPath id="clip0_7_48">
			<rect width="259.7" height="60.76" fill="white"></rect>
		</clipPath>
	</defs>
</svg>